<svg xmlns="http://www.w3.org/2000/svg" xmlns:xlink="http://www.w3.org/1999/xlink" preserveAspectRatio="xMidYMid" width="499.968" height="56.616" viewBox="0 0 2976 337">
  <defs>
    <style>
      .cls-1, .cls-2 {
        fill: #141414;
        fill-rule: evenodd;
      }

      .cls-2 {
        stroke: #efeced;
        stroke-width: 1px;
      }
    </style>
  </defs>
  <g>
    <path d="M1489.604,81.906 L1489.604,292.019 L1451.421,292.019 L1451.421,81.906 L1411.503,81.906 L1411.503,46.887 L1529.523,46.887 L1529.523,81.906 L1489.604,81.906 ZM1356.665,46.887 L1394.848,46.887 L1394.848,292.019 L1356.665,292.019 L1356.665,46.887 ZM1237.615,294.120 C1200.473,294.120 1185.200,267.506 1185.200,232.136 L1185.200,106.769 C1185.200,71.400 1200.473,44.786 1237.615,44.786 C1274.756,44.786 1290.029,71.400 1290.029,106.769 L1290.029,124.979 L1274.756,124.979 L1274.756,105.718 C1274.756,79.454 1264.690,59.493 1237.962,59.493 C1211.234,59.493 1201.167,79.454 1201.167,105.718 L1201.167,233.187 C1201.167,259.451 1211.234,279.062 1237.962,279.062 C1264.690,279.062 1274.756,259.451 1274.756,233.187 L1274.756,180.309 L1242.474,180.309 L1242.474,165.601 L1290.029,165.601 L1290.029,232.136 C1290.029,267.506 1274.756,294.120 1237.615,294.120 ZM1053.409,73.501 L1053.409,292.019 L1038.830,292.019 L1038.830,46.887 L1059.657,46.887 L1132.551,253.848 L1132.551,46.887 L1147.130,46.887 L1147.130,292.019 L1129.427,292.019 L1053.409,73.501 ZM984.164,46.887 L1000.131,46.887 L1000.131,292.019 L984.164,292.019 L984.164,46.887 ZM855.635,46.887 L871.602,46.887 L871.602,277.311 L947.968,277.311 L947.968,292.019 L855.635,292.019 L855.635,46.887 ZM796.913,262.603 L796.913,224.082 C796.913,191.515 779.210,182.410 751.441,182.410 L726.101,182.410 L726.101,292.019 L710.134,292.019 L710.134,46.887 L760.813,46.887 C797.955,46.887 812.881,67.548 812.881,102.216 L812.881,123.578 C812.881,152.293 801.773,168.752 777.822,174.355 C802.814,179.958 812.881,197.818 812.881,224.432 L812.881,262.603 C812.881,272.758 813.575,283.964 818.782,292.019 L802.120,292.019 C797.955,284.665 796.913,275.910 796.913,262.603 ZM796.913,126.730 L796.913,103.617 C796.913,77.353 786.847,61.595 760.466,61.595 L726.101,61.595 L726.101,167.702 L751.788,167.702 C780.252,167.702 796.913,159.647 796.913,126.730 ZM655.468,46.887 L671.436,46.887 L671.436,292.019 L655.468,292.019 L655.468,46.887 ZM571.646,292.019 L555.679,292.019 L555.679,61.595 L506.388,61.595 L506.388,46.887 L621.284,46.887 L621.284,61.595 L571.646,61.595 L571.646,292.019 ZM425.968,294.120 C388.827,294.120 373.554,268.206 373.554,232.837 L373.554,220.230 L388.827,220.230 L388.827,233.887 C388.827,260.152 398.893,279.062 425.621,279.062 C452.349,279.062 462.416,260.152 462.416,233.887 C462.416,175.056 374.595,174.005 374.595,105.718 C374.595,68.949 390.562,45.136 426.315,44.786 C463.110,44.786 478.036,70.699 478.036,106.069 L478.036,111.321 L462.763,111.321 L462.763,105.018 C462.763,79.104 453.043,59.493 426.663,59.493 C400.282,59.493 390.562,78.754 390.562,104.668 C390.562,164.200 478.383,165.250 478.383,232.837 C478.383,268.206 463.110,294.120 425.968,294.120 Z" class="cls-1"/>
    <path d="M2941.526,241.532 L2885.869,143.889 L2885.081,143.889 C2886.189,161.135 2886.744,173.435 2886.744,180.792 L2886.744,241.532 L2862.503,241.532 L2862.503,112.459 L2896.720,112.459 L2952.289,209.131 L2952.902,209.131 C2952.027,192.357 2951.589,180.498 2951.589,173.552 L2951.589,112.459 L2976.005,112.459 L2976.005,241.532 L2941.526,241.532 ZM2760.879,243.298 C2741.568,243.298 2726.823,237.574 2716.643,226.126 C2706.461,214.680 2701.372,198.243 2701.372,176.819 C2701.372,155.984 2707.279,139.739 2719.093,128.086 C2730.907,116.432 2747.285,110.605 2768.230,110.605 C2781.357,110.605 2794.016,113.254 2806.210,118.551 L2797.196,140.446 C2787.862,135.737 2778.148,133.383 2768.055,133.383 C2756.329,133.383 2746.935,137.356 2739.877,145.301 C2732.817,153.247 2729.288,163.929 2729.288,177.349 C2729.288,191.357 2732.132,202.055 2737.820,209.440 C2743.508,216.827 2751.778,220.520 2762.630,220.520 C2768.288,220.520 2774.035,219.933 2779.869,218.754 L2779.869,191.827 L2755.629,191.827 L2755.629,169.050 L2806.385,169.050 L2806.385,235.970 C2798.159,238.678 2790.414,240.576 2783.151,241.664 C2775.888,242.753 2768.463,243.298 2760.879,243.298 ZM2622.260,112.459 L2649.389,112.459 L2649.389,241.532 L2622.260,241.532 L2622.260,112.459 ZM2523.785,157.970 C2526.206,159.648 2531.938,162.664 2540.981,167.019 C2552.940,172.788 2561.137,178.571 2565.572,184.367 C2570.005,190.165 2572.223,197.272 2572.223,205.688 C2572.223,217.342 2568.066,226.524 2559.752,233.233 C2551.439,239.943 2539.872,243.298 2525.054,243.298 C2511.403,243.298 2499.326,240.709 2488.825,235.529 L2488.825,210.103 C2497.458,213.987 2504.765,216.724 2510.746,218.313 C2516.726,219.902 2522.195,220.697 2527.155,220.697 C2533.105,220.697 2537.670,219.549 2540.850,217.254 C2544.029,214.958 2545.619,211.545 2545.619,207.013 C2545.619,204.483 2544.919,202.231 2543.519,200.259 C2542.119,198.287 2540.062,196.389 2537.350,194.564 C2534.637,192.741 2529.108,189.827 2520.766,185.824 C2512.948,182.116 2507.084,178.556 2503.177,175.142 C2499.267,171.729 2496.146,167.756 2493.813,163.223 C2491.479,158.692 2490.312,153.394 2490.312,147.332 C2490.312,135.914 2494.148,126.938 2501.820,120.405 C2509.491,113.872 2520.095,110.605 2533.630,110.605 C2540.281,110.605 2546.626,111.400 2552.664,112.989 C2558.702,114.578 2565.017,116.815 2571.610,119.698 L2562.859,140.975 C2556.033,138.150 2550.389,136.179 2545.926,135.060 C2541.463,133.943 2537.072,133.383 2532.755,133.383 C2527.621,133.383 2523.683,134.590 2520.941,137.002 C2518.198,139.416 2516.828,142.564 2516.828,146.449 C2516.828,148.863 2517.382,150.967 2518.491,152.761 C2519.599,154.557 2521.364,156.293 2523.785,157.970 ZM2368.708,112.459 L2442.392,112.459 L2442.392,134.884 L2395.836,134.884 L2395.836,163.223 L2439.154,163.223 L2439.154,185.648 L2395.836,185.648 L2395.836,218.931 L2442.392,218.931 L2442.392,241.532 L2368.708,241.532 L2368.708,112.459 ZM2247.287,241.532 L2211.057,241.532 L2211.057,112.459 L2251.225,112.459 C2272.110,112.459 2288.330,118.021 2299.881,129.145 C2311.432,140.269 2317.208,155.807 2317.208,175.760 C2317.208,197.007 2311.214,213.281 2299.225,224.581 C2287.236,235.882 2269.922,241.532 2247.287,241.532 ZM2252.625,134.884 L2238.186,134.884 L2238.186,218.931 L2249.825,218.931 C2275.960,218.931 2289.030,204.776 2289.030,176.466 C2289.030,148.744 2276.894,134.884 2252.625,134.884 ZM2083.384,184.147 C2086.972,189.150 2088.766,195.800 2088.766,204.099 C2088.766,215.871 2084.551,225.053 2076.121,231.644 C2067.690,238.237 2056.241,241.532 2041.773,241.532 L1993.905,241.532 L1993.905,112.459 L2033.722,112.459 C2051.866,112.459 2065.036,115.064 2073.233,120.272 C2081.429,125.481 2085.529,133.766 2085.529,145.125 C2085.529,152.836 2083.735,159.162 2080.147,164.106 C2076.559,169.050 2071.789,172.023 2065.839,173.023 L2065.839,173.906 C2073.947,175.731 2079.797,179.145 2083.384,184.147 ZM2052.318,138.106 C2048.730,135.958 2043.056,134.884 2035.297,134.884 L2021.033,134.884 L2021.033,163.576 L2036.785,163.576 C2044.136,163.576 2049.459,162.429 2052.756,160.133 C2056.051,157.838 2057.700,154.041 2057.700,148.744 C2057.700,143.800 2055.906,140.255 2052.318,138.106 ZM2037.835,185.294 L2021.033,185.294 L2021.033,218.931 L2038.710,218.931 C2046.177,218.931 2051.691,217.490 2055.250,214.605 C2058.808,211.722 2060.588,207.308 2060.588,201.362 C2060.588,190.651 2053.003,185.294 2037.835,185.294 ZM1867.005,112.459 L1940.689,112.459 L1940.689,134.884 L1894.133,134.884 L1894.133,163.223 L1937.451,163.223 L1937.451,185.648 L1894.133,185.648 L1894.133,218.931 L1940.689,218.931 L1940.689,241.532 L1867.005,241.532 L1867.005,112.459 ZM1759.284,241.532 L1741.957,173.729 C1741.314,171.316 1740.220,166.328 1738.675,158.765 C1737.128,151.203 1736.238,146.126 1736.006,143.535 C1735.656,146.714 1734.781,151.821 1733.381,158.853 C1731.980,165.887 1730.900,170.904 1730.143,173.906 L1712.903,241.532 L1682.099,241.532 L1649.458,112.459 L1676.148,112.459 L1692.513,182.911 C1695.371,195.919 1697.442,207.189 1698.726,216.724 C1699.076,213.369 1699.878,208.175 1701.133,201.142 C1702.387,194.109 1703.568,188.649 1704.677,184.765 L1723.317,112.459 L1748.957,112.459 L1767.597,184.765 C1768.414,188.002 1769.435,192.946 1770.660,199.597 C1771.885,206.248 1772.818,211.957 1773.461,216.724 C1774.043,212.133 1774.977,206.410 1776.261,199.552 C1777.543,192.697 1778.711,187.148 1779.761,182.911 L1796.038,112.459 L1822.729,112.459 L1790.175,241.532 L1759.284,241.532 Z" class="cls-1"/>
    <path d="M113.405,155.381 C104.164,136.215 111.818,112.969 130.534,103.480 L133.208,102.103 L136.980,109.998 C128.504,114.289 132.951,126.538 132.951,126.538 L138.039,137.076 C142.589,146.520 153.232,144.024 153.547,143.866 L158.681,154.694 L122.065,173.297 L113.405,155.381 ZM230.581,185.871 C239.826,205.042 234.867,233.889 216.173,243.389 L201.645,250.763 C182.929,260.272 157.557,246.819 148.302,227.650 L126.880,182.340 L209.120,140.503 L230.581,185.871 ZM152.110,116.264 L157.109,126.610 C158.625,129.738 157.374,133.553 154.303,135.104 C151.233,136.666 147.519,135.380 146.006,132.244 L141.014,121.905 C139.495,118.756 140.756,114.954 143.822,113.406 C146.882,111.841 150.597,113.127 152.110,116.264 ZM146.923,95.147 C165.630,85.651 186.426,94.426 195.690,113.583 L204.347,131.524 L167.561,150.217 L162.375,139.467 L162.319,139.451 C171.375,134.845 166.120,122.453 166.120,122.453 L161.329,112.548 C156.844,103.252 146.233,105.519 146.238,105.520 L142.389,97.464 L146.923,95.147 Z" class="cls-1"/>
    <path d="M137.738,82.331 C142.064,71.503 142.484,57.855 133.560,51.043 C123.231,43.160 105.197,51.311 102.822,43.911 C99.807,34.514 112.977,27.770 122.672,24.152 C135.989,19.183 145.192,17.522 167.499,17.522 C249.807,17.522 316.530,85.346 316.530,168.382 C316.530,251.418 249.807,318.732 167.499,318.732 C85.192,318.732 18.468,251.418 18.468,168.382 C18.468,136.357 29.381,113.088 30.532,109.061 C33.320,102.390 16.454,95.360 13.621,102.136 C10.331,109.743 -0.008,135.385 -0.008,168.496 C-0.008,261.561 74.783,337.005 167.042,337.005 C259.301,337.005 334.092,261.561 334.092,168.496 C334.092,75.431 259.301,-0.012 167.042,-0.012 C154.277,-0.012 141.258,1.319 132.626,3.326 C120.984,6.031 101.558,11.807 92.253,24.690 C88.125,30.404 81.042,42.136 88.327,53.556 C91.265,58.162 96.431,60.327 101.117,61.093 C105.802,61.860 120.013,58.772 122.925,62.477 C125.838,66.182 126.599,75.264 123.179,83.684 C122.042,86.482 126.184,88.559 129.837,88.205 C133.485,87.852 136.643,85.073 137.738,82.331 Z" class="cls-2"/>
  </g>
</svg>
